ZiroliWes-B1.ufo
<glyph name="parenleft" format="1">
  <advance width="373"/>
  <unicode hex="0028"/>
  <outline>
    <contour>
      <point x="305" y="723" type="curve"/>
      <point x="320" y="705" type="line"/>
      <point x="209" y="644"/>
      <point x="161" y="511"/>
      <point x="161" y="377" type="curve" smooth="yes"/>
      <point x="161" y="233"/>
      <point x="208" y="81"/>
      <point x="314" y="-16" type="curve"/>
      <point x="302" y="-34" type="line"/>
      <point x="206" y="26"/>
      <point x="80" y="186"/>
      <point x="80" y="348" type="curve" smooth="yes"/>
      <point x="80" y="551"/>
      <point x="198" y="657"/>
    </contour>
  </outline>
</glyph>
<glyph name="asterisk" format="1">
  <advance width="467"/>
  <unicode hex="002A"/>
  <outline>
    <contour>
      <point x="73" y="519" type="line"/>
      <point x="207" y="447" type="line"/>
      <point x="290" y="575" type="line"/>
      <point x="292" y="427" type="line"/>
      <point x="444" y="425" type="line"/>
      <point x="312" y="346" type="line"/>
      <point x="384" y="217" type="line"/>
      <point x="249" y="286" type="line"/>
      <point x="168" y="158" type="line"/>
      <point x="166" y="308" type="line"/>
      <point x="12" y="310" type="line"/>
      <point x="144" y="389" type="line"/>
    </contour>
  </outline>
</glyph>
<glyph name="comma" format="1">
  <advance width="251"/>
  <unicode hex="002C"/>
  <outline>
    <contour>
      <point x="25" y="27" type="curve"/>
      <point x="18" y="33" type="line"/>
      <point x="25" y="71"/>
      <point x="50" y="120"/>
      <point x="108" y="120" type="curve" smooth="yes"/>
      <point x="156" y="120"/>
      <point x="195" y="90"/>
      <point x="195" y="33" type="curve" smooth="yes"/>
      <point x="195" y="-40"/>
      <point x="152" y="-113"/>
      <point x="46" y="-184" type="curve"/>
      <point x="37" y="-161" type="line"/>
      <point x="84" y="-131"/>
      <point x="126" y="-81"/>
      <point x="126" y="-18" type="curve" smooth="yes"/>
      <point x="126" y="11"/>
      <point x="105" y="41"/>
      <point x="69" y="41" type="curve" smooth="yes"/>
      <point x="54" y="41"/>
      <point x="39" y="36"/>
    </contour>
  </outline>
</glyph>
<glyph name="period" format="1">
  <advance width="231"/>
  <unicode hex="002E"/>
  <outline>
    <contour>
      <point x="46" y="59" type="curve" smooth="yes"/>
      <point x="46" y="27"/>
      <point x="78" y="-10"/>
      <point x="115" y="-10" type="curve" smooth="yes"/>
      <point x="154" y="-10"/>
      <point x="185" y="27"/>
      <point x="185" y="59" type="curve" smooth="yes"/>
      <point x="185" y="92"/>
      <point x="154" y="129"/>
      <point x="115" y="129" type="curve" smooth="yes"/>
      <point x="78" y="129"/>
      <point x="46" y="92"/>
    </contour>
  </outline>
</glyph>
<glyph name="zero" format="1">
  <advance width="701"/>
  <unicode hex="0030"/>
  <outline>
    <contour>
      <point x="67" y="330" type="curve" smooth="yes"/>
      <point x="67" y="144"/>
      <point x="152" y="-16"/>
      <point x="350" y="-16" type="curve" smooth="yes"/>
      <point x="516" y="-16"/>
      <point x="633" y="121"/>
      <point x="633" y="330" type="curve" smooth="yes"/>
      <point x="633" y="542"/>
      <point x="531" y="681"/>
      <point x="350" y="681" type="curve" smooth="yes"/>
      <point x="164" y="681"/>
      <point x="67" y="519"/>
    </contour>
    <contour>
      <point x="350" y="635" type="curve" smooth="yes"/>
      <point x="468" y="635"/>
      <point x="526" y="504"/>
      <point x="526" y="331" type="curve" smooth="yes"/>
      <point x="526" y="151"/>
      <point x="468" y="30"/>
      <point x="350" y="30" type="curve" smooth="yes"/>
      <point x="232" y="30"/>
      <point x="174" y="161"/>
      <point x="174" y="331" type="curve" smooth="yes"/>
      <point x="169" y="514"/>
      <point x="229" y="635"/>
    </contour>
  </outline>
</glyph>
<glyph name="one" format="1">
  <advance width="388"/>
  <unicode hex="0031"/>
  <outline>
    <contour>
      <point x="27" y="510" type="line"/>
      <point x="38" y="506"/>
      <point x="62" y="503"/>
      <point x="76" y="503" type="curve" smooth="yes"/>
      <point x="103" y="503"/>
      <point x="127" y="507"/>
      <point x="149" y="519" type="curve"/>
      <point x="152" y="516"/>
      <point x="155" y="423"/>
      <point x="155" y="323" type="curve" smooth="yes"/>
      <point x="155" y="323" type="line"/>
      <point x="255" y="323" type="line"/>
      <point x="256" y="538"/>
      <point x="260" y="676"/>
      <point x="264" y="697" type="curve"/>
      <point x="253" y="697" type="line"/>
      <point x="234" y="663"/>
      <point x="208" y="625"/>
      <point x="177" y="593" type="curve" smooth="yes"/>
      <point x="137" y="553"/>
      <point x="85" y="515"/>
      <point x="27" y="518" type="curve"/>
    </contour>
    <contour>
      <point x="357" y="-4" type="curve"/>
      <point x="357" y="12" type="line"/>
      <point x="265" y="17"/>
      <point x="255" y="38"/>
      <point x="255" y="248" type="curve" smooth="yes"/>
      <point x="255" y="323" type="line"/>
      <point x="155" y="323" type="line"/>
      <point x="155" y="248" type="line" smooth="yes"/>
      <point x="155" y="38"/>
      <point x="147" y="17"/>
      <point x="53" y="10" type="curve"/>
      <point x="53" y="-4" type="line"/>
      <point x="106" y="0"/>
      <point x="166" y="4"/>
      <point x="205" y="4" type="curve" smooth="yes"/>
      <point x="244" y="4"/>
      <point x="306" y="0"/>
    </contour>
  </outline>
</glyph>
<glyph name="two" format="1">
  <advance width="564"/>
  <unicode hex="0032"/>
  <outline>
    <contour>
      <point x="117" y="8" type="move"/>
      <point x="135" y="29" type="line" smooth="yes"/>
      <point x="299" y="195"/>
      <point x="478" y="379"/>
      <point x="478" y="504" type="curve" smooth="yes"/>
      <point x="478" y="633"/>
      <point x="366" y="681"/>
      <point x="256" y="681" type="curve" smooth="yes"/>
      <point x="131" y="681"/>
      <point x="41" y="604"/>
      <point x="41" y="513" type="curve" smooth="yes"/>
      <point x="41" y="459"/>
      <point x="75" y="415"/>
      <point x="138" y="390" type="curve"/>
      <point x="144" y="400" type="line"/>
      <point x="123" y="421"/>
      <point x="108" y="466"/>
      <point x="108" y="507" type="curve" smooth="yes"/>
      <point x="108" y="582"/>
      <point x="150" y="629"/>
      <point x="225" y="629" type="curve" smooth="yes"/>
      <point x="285" y="629"/>
      <point x="356" y="595"/>
      <point x="356" y="495" type="curve" smooth="yes"/>
      <point x="356" y="381"/>
      <point x="213" y="176"/>
      <point x="48" y="11" type="curve" smooth="yes"/>
    </contour>
    <contour>
      <point x="118" y="70" type="curve"/>
      <point x="48" y="11" type="line"/>
      <point x="48" y="-8" type="line"/>
      <point x="132" y="-4"/>
      <point x="333" y="0"/>
      <point x="366" y="0" type="curve" smooth="yes"/>
      <point x="393" y="0"/>
      <point x="475" y="0"/>
      <point x="514" y="-2" type="curve"/>
      <point x="517" y="18" type="line"/>
      <point x="517" y="63"/>
      <point x="519" y="109"/>
      <point x="547" y="201" type="curve"/>
      <point x="530" y="210" type="line"/>
      <point x="506" y="83"/>
      <point x="466" y="60"/>
      <point x="275" y="60" type="curve" smooth="yes"/>
      <point x="229" y="60"/>
      <point x="145" y="66"/>
    </contour>
  </outline>
</glyph>
<glyph name="three" format="1">
  <advance width="568"/>
  <unicode hex="0033"/>
  <outline>
    <contour>
      <point x="235" y="407" type="curve"/>
      <point x="191" y="370" type="line"/>
      <point x="201" y="361" type="line"/>
      <point x="217" y="367"/>
      <point x="232" y="370"/>
      <point x="252" y="370" type="curve" smooth="yes"/>
      <point x="358" y="370"/>
      <point x="421" y="301"/>
      <point x="421" y="206" type="curve" smooth="yes"/>
      <point x="421" y="90"/>
      <point x="344" y="26"/>
      <point x="250" y="27" type="curve" smooth="yes"/>
      <point x="165" y="28"/>
      <point x="112" y="72"/>
      <point x="107" y="143" type="curve" smooth="yes"/>
      <point x="105" y="176"/>
      <point x="109" y="211"/>
      <point x="121" y="239" type="curve"/>
      <point x="110" y="246" type="line"/>
      <point x="85" y="217"/>
      <point x="42" y="192"/>
      <point x="42" y="138" type="curve" smooth="yes"/>
      <point x="42" y="46"/>
      <point x="140" y="-15"/>
      <point x="249" y="-15" type="curve" smooth="yes"/>
      <point x="441" y="-15"/>
      <point x="524" y="116"/>
      <point x="524" y="239" type="curve" smooth="yes"/>
      <point x="524" y="351"/>
      <point x="441" y="422"/>
      <point x="327" y="422" type="curve" smooth="yes"/>
      <point x="306" y="422"/>
      <point x="283" y="419"/>
    </contour>
    <contour>
      <point x="358" y="627" type="line"/>
      <point x="311" y="542"/>
      <point x="251" y="449"/>
      <point x="192" y="370" type="curve"/>
      <point x="299" y="386" type="line"/>
      <point x="332" y="435"/>
      <point x="380" y="514"/>
      <point x="427" y="582" type="curve" smooth="yes"/>
      <point x="486" y="667" type="line"/>
      <point x="484" y="680" type="line"/>
      <point x="458" y="676"/>
      <point x="389" y="676"/>
      <point x="221" y="676" type="curve"/>
      <point x="221" y="649" type="line"/>
      <point x="362" y="634" type="line"/>
    </contour>
    <contour>
      <point x="414" y="676" type="line"/>
      <point x="317" y="676" type="line" smooth="yes"/>
      <point x="239" y="676"/>
      <point x="115" y="676"/>
      <point x="89" y="681" type="curve"/>
      <point x="79" y="681" type="line"/>
      <point x="80" y="642"/>
      <point x="78" y="577"/>
      <point x="57" y="499" type="curve"/>
      <point x="73" y="496" type="line"/>
      <point x="92" y="615"/>
      <point x="147" y="622"/>
      <point x="242" y="622" type="curve" smooth="yes"/>
      <point x="352" y="622"/>
      <point x="385" y="612"/>
      <point x="412" y="609" type="curve"/>
    </contour>
  </outline>
</glyph>
<glyph name="four" format="1">
  <advance width="645"/>
  <unicode hex="0034"/>
  <outline>
    <contour>
      <point x="271" y="405" type="curve" smooth="yes"/>
      <point x="398" y="631"/>
      <point x="455" y="657"/>
      <point x="527" y="666" type="curve"/>
      <point x="527" y="680" type="line"/>
      <point x="488" y="674"/>
      <point x="454" y="670"/>
      <point x="390" y="670" type="curve" smooth="yes"/>
      <point x="336" y="670"/>
      <point x="276" y="677"/>
      <point x="239" y="680" type="curve"/>
      <point x="239" y="666" type="line"/>
      <point x="339" y="655"/>
      <point x="308" y="575"/>
      <point x="194" y="381" type="curve" smooth="yes"/>
      <point x="159" y="321"/>
      <point x="108" y="244"/>
      <point x="66" y="195" type="curve"/>
      <point x="168" y="193" type="line"/>
      <point x="185" y="243"/>
      <point x="237" y="345"/>
    </contour>
    <contour>
      <point x="130" y="250" type="curve"/>
      <point x="66" y="195" type="line"/>
      <point x="79" y="179" type="line"/>
      <point x="221" y="189"/>
      <point x="504" y="190"/>
      <point x="569" y="183" type="curve"/>
      <point x="573" y="239"/>
      <point x="589" y="331"/>
      <point x="599" y="362" type="curve"/>
      <point x="584" y="366" type="line"/>
      <point x="566" y="280"/>
      <point x="534" y="239"/>
      <point x="439" y="248" type="curve"/>
      <point x="382" y="245" type="line"/>
      <point x="346" y="242"/>
      <point x="303" y="242"/>
      <point x="250" y="242" type="curve" smooth="yes"/>
      <point x="198" y="242"/>
      <point x="159" y="247"/>
    </contour>
    <contour>
      <point x="357" y="369" type="curve"/>
      <point x="358" y="338"/>
      <point x="360" y="283"/>
      <point x="358" y="209" type="curve"/>
      <point x="456" y="209" type="line"/>
      <point x="455" y="292"/>
      <point x="461" y="357"/>
      <point x="465" y="406" type="curve"/>
      <point x="458" y="408" type="line"/>
      <point x="435" y="389"/>
      <point x="392" y="377"/>
    </contour>
    <contour>
      <point x="556" y="-4" type="curve"/>
      <point x="556" y="12" type="line"/>
      <point x="464" y="17"/>
      <point x="454" y="38"/>
      <point x="454" y="248" type="curve" smooth="yes"/>
      <point x="454" y="310" type="line"/>
      <point x="359" y="310" type="line"/>
      <point x="360" y="248" type="line" smooth="yes"/>
      <point x="363" y="38"/>
      <point x="352" y="17"/>
      <point x="258" y="10" type="curve"/>
      <point x="258" y="-4" type="line"/>
      <point x="309" y="0"/>
      <point x="367" y="4"/>
      <point x="404" y="4" type="curve" smooth="yes"/>
      <point x="443" y="4"/>
      <point x="505" y="0"/>
    </contour>
  </outline>
</glyph>
<glyph name="six" format="1">
  <advance width="630"/>
  <unicode hex="0036"/>
  <outline>
    <contour>
      <point x="203" y="161" type="line"/>
      <point x="193" y="194"/>
      <point x="190" y="211"/>
      <point x="190" y="233" type="curve" smooth="yes"/>
      <point x="190" y="313"/>
      <point x="262" y="372"/>
      <point x="331" y="372" type="curve" smooth="yes"/>
      <point x="419" y="372"/>
      <point x="492" y="301"/>
      <point x="492" y="200" type="curve" smooth="yes"/>
      <point x="492" y="101"/>
      <point x="427" y="43"/>
      <point x="356" y="43" type="curve" smooth="yes"/>
      <point x="252" y="43"/>
      <point x="180" y="143"/>
      <point x="180" y="296" type="curve"/>
      <point x="184" y="325" type="line"/>
      <point x="188" y="576"/>
      <point x="406" y="705"/>
      <point x="615" y="690" type="curve"/>
      <point x="613" y="707" type="line"/>
      <point x="269" y="727"/>
      <point x="72" y="554"/>
      <point x="72" y="269" type="curve" smooth="yes"/>
      <point x="72" y="117"/>
      <point x="173" y="-11"/>
      <point x="339" y="-11" type="curve" smooth="yes"/>
      <point x="480" y="-11"/>
      <point x="581" y="111"/>
      <point x="581" y="244" type="curve" smooth="yes"/>
      <point x="581" y="366"/>
      <point x="497" y="450"/>
      <point x="388" y="450" type="curve" smooth="yes"/>
      <point x="266" y="450"/>
      <point x="182" y="363"/>
      <point x="149" y="249" type="curve"/>
    </contour>
  </outline>
</glyph>
<glyph name="seven" format="1">
  <advance width="544"/>
  <unicode hex="0037"/>
  <outline>
    <contour>
      <point x="478" y="668" type="line"/>
      <point x="225" y="668"/>
      <point x="129" y="671"/>
      <point x="93" y="678" type="curve"/>
      <point x="91" y="635"/>
      <point x="72" y="560"/>
      <point x="41" y="488" type="curve"/>
      <point x="58" y="480" type="line"/>
      <point x="89" y="589"/>
      <point x="105" y="618"/>
      <point x="279" y="618" type="curve" smooth="yes"/>
      <point x="370" y="618"/>
      <point x="454" y="611"/>
      <point x="478" y="608" type="curve"/>
    </contour>
    <contour>
      <point x="367" y="-4" type="curve"/>
      <point x="367" y="12" type="line"/>
      <point x="296" y="21"/>
      <point x="280" y="36"/>
      <point x="439" y="403" type="curve" smooth="yes"/>
      <point x="551" y="662" type="line"/>
      <point x="546" y="673" type="line"/>
      <point x="525" y="671"/>
      <point x="433" y="668"/>
      <point x="339" y="668" type="curve"/>
      <point x="339" y="646" type="line"/>
      <point x="423" y="630" type="line"/>
      <point x="387" y="497"/>
      <point x="305" y="317"/>
      <point x="274" y="249" type="curve" smooth="yes"/>
      <point x="187" y="61"/>
      <point x="169" y="25"/>
      <point x="87" y="12" type="curve"/>
      <point x="87" y="-4" type="line"/>
      <point x="125" y="0"/>
      <point x="171" y="4"/>
      <point x="220" y="4" type="curve" smooth="yes"/>
      <point x="262" y="4"/>
      <point x="331" y="0"/>
    </contour>
  </outline>
</glyph>
<glyph name="eight" format="1">
  <advance width="686"/>
  <unicode hex="0038"/>
  <outline>
    <contour>
      <point x="333" y="-14" type="curve" smooth="yes"/>
      <point x="457" y="-14"/>
      <point x="593" y="53"/>
      <point x="593" y="200" type="curve" smooth="yes"/>
      <point x="593" y="301"/>
      <point x="538" y="380"/>
      <point x="430" y="393" type="curve"/>
      <point x="339" y="384" type="line"/>
      <point x="276" y="391" type="line"/>
      <point x="171" y="384"/>
      <point x="93" y="308"/>
      <point x="93" y="199" type="curve" smooth="yes"/>
      <point x="93" y="83"/>
      <point x="186" y="-14"/>
    </contour>
    <contour>
      <point x="350" y="38" type="curve" smooth="yes"/>
      <point x="256" y="38"/>
      <point x="193" y="104"/>
      <point x="193" y="197" type="curve" smooth="yes"/>
      <point x="193" y="279"/>
      <point x="245" y="352"/>
      <point x="334" y="352" type="curve" smooth="yes"/>
      <point x="435" y="352"/>
      <point x="490" y="271"/>
      <point x="490" y="189" type="curve" smooth="yes"/>
      <point x="490" y="90"/>
      <point x="430" y="38"/>
    </contour>
    <contour>
      <point x="421" y="377" type="line"/>
      <point x="507" y="398"/>
      <point x="550" y="468"/>
      <point x="550" y="537" type="curve" smooth="yes"/>
      <point x="550" y="625"/>
      <point x="490" y="709"/>
      <point x="344" y="709" type="curve" smooth="yes"/>
      <point x="210" y="709"/>
      <point x="133" y="621"/>
      <point x="133" y="532" type="curve" smooth="yes"/>
      <point x="133" y="457"/>
      <point x="191" y="390"/>
      <point x="256" y="375" type="curve"/>
      <point x="339" y="371" type="line"/>
    </contour>
    <contour>
      <point x="225" y="525" type="curve" smooth="yes"/>
      <point x="225" y="618"/>
      <point x="283" y="665"/>
      <point x="343" y="665" type="curve" smooth="yes"/>
      <point x="418" y="665"/>
      <point x="457" y="589"/>
      <point x="457" y="520" type="curve" smooth="yes"/>
      <point x="457" y="454"/>
      <point x="420" y="396"/>
      <point x="344" y="396" type="curve" smooth="yes"/>
      <point x="269" y="396"/>
      <point x="225" y="461"/>
    </contour>
  </outline>
</glyph>
<glyph name="nine" format="1">
  <advance width="643"/>
  <unicode hex="0039"/>
  <outline>
    <contour>
      <point x="76" y="95" type="curve"/>
      <point x="63" y="82" type="line"/>
      <point x="89" y="43"/>
      <point x="150" y="-12"/>
      <point x="258" y="-12" type="curve" smooth="yes"/>
      <point x="456" y="-12"/>
      <point x="590" y="160"/>
      <point x="590" y="384" type="curve" smooth="yes"/>
      <point x="590" y="561"/>
      <point x="489" y="681"/>
      <point x="336" y="681" type="curve" smooth="yes"/>
      <point x="212" y="681"/>
      <point x="97" y="597"/>
      <point x="97" y="453" type="curve" smooth="yes"/>
      <point x="97" y="330"/>
      <point x="200" y="251"/>
      <point x="303" y="251" type="curve" smooth="yes"/>
      <point x="426" y="251"/>
      <point x="507" y="349"/>
      <point x="507" y="453" type="curve"/>
      <point x="476" y="450" type="line"/>
      <point x="483" y="432"/>
      <point x="494" y="440"/>
      <point x="490" y="428" type="curve" smooth="yes"/>
      <point x="474" y="367"/>
      <point x="416" y="322"/>
      <point x="352" y="322" type="curve" smooth="yes"/>
      <point x="280" y="322"/>
      <point x="198" y="375"/>
      <point x="198" y="487" type="curve" smooth="yes"/>
      <point x="198" y="564"/>
      <point x="248" y="625"/>
      <point x="323" y="625" type="curve" smooth="yes"/>
      <point x="396" y="625"/>
      <point x="477" y="560"/>
      <point x="477" y="362" type="curve"/>
      <point x="488" y="218"/>
      <point x="411" y="27"/>
      <point x="246" y="27" type="curve" smooth="yes"/>
      <point x="180" y="27"/>
      <point x="121" y="48"/>
    </contour>
  </outline>
</glyph>
<glyph name="A" format="1">
  <advance width="676"/>
  <unicode hex="0041"/>
  <outline>
    <contour>
      <point x="324" y="694" type="line"/>
      <point x="193" y="334" type="line" smooth="yes"/>
      <point x="93" y="60"/>
      <point x="80" y="19"/>
      <point x="0" y="12" type="curve"/>
      <point x="0" y="-4" type="line"/>
      <point x="28" y="0"/>
      <point x="72" y="4"/>
      <point x="111" y="4" type="curve" smooth="yes"/>
      <point x="134" y="4"/>
      <point x="196" y="0"/>
      <point x="222" y="-4" type="curve"/>
      <point x="222" y="12" type="line"/>
      <point x="162" y="14"/>
      <point x="156" y="29"/>
      <point x="203" y="205" type="curve" smooth="yes"/>
      <point x="221" y="273"/>
      <point x="305" y="482"/>
      <point x="332" y="569" type="curve"/>
    </contour>
    <contour>
      <point x="442" y="162" type="curve" smooth="yes"/>
      <point x="488" y="31"/>
      <point x="470" y="12"/>
      <point x="411" y="12" type="curve"/>
      <point x="411" y="-4" type="line"/>
      <point x="438" y="0"/>
      <point x="509" y="4"/>
      <point x="527" y="4" type="curve" smooth="yes"/>
      <point x="551" y="4"/>
      <point x="626" y="0"/>
      <point x="659" y="-4" type="curve"/>
      <point x="659" y="12" type="line"/>
      <point x="604" y="14"/>
      <point x="582" y="44"/>
      <point x="520" y="193" type="curve" smooth="yes"/>
      <point x="459" y="338"/>
      <point x="389" y="520"/>
      <point x="320" y="694" type="curve"/>
      <point x="324" y="694" type="line"/>
      <point x="299" y="522" type="line"/>
      <point x="352" y="398"/>
      <point x="393" y="301"/>
    </contour>
    <contour>
      <point x="186" y="189" type="line"/>
      <point x="219" y="190"/>
      <point x="269" y="192"/>
      <point x="319" y="192" type="curve" smooth="yes"/>
      <point x="358" y="192"/>
      <point x="417" y="190"/>
      <point x="449" y="189" type="curve"/>
      <point x="449" y="237" type="line"/>
      <point x="416" y="235"/>
      <point x="378" y="233"/>
      <point x="318" y="233" type="curve" smooth="yes"/>
      <point x="277" y="233"/>
      <point x="219" y="235"/>
      <point x="186" y="236" type="curve"/>
    </contour>
  </outline>
</glyph>
<glyph name="B" format="1">
  <advance width="616"/>
  <unicode hex="0042"/>
  <outline>
    <contour>
      <point x="199" y="377" type="line"/>
      <point x="190" y="338" type="line"/>
      <point x="210" y="343"/>
      <point x="237" y="348"/>
      <point x="276" y="348" type="curve" smooth="yes"/>
      <point x="333" y="348"/>
      <point x="386" y="334"/>
      <point x="420" y="305" type="curve" smooth="yes"/>
      <point x="457" y="274"/>
      <point x="476" y="232"/>
      <point x="476" y="186" type="curve" smooth="yes"/>
      <point x="476" y="89"/>
      <point x="421" y="42"/>
      <point x="337" y="42" type="curve" smooth="yes"/>
      <point x="258" y="42"/>
      <point x="216" y="78"/>
      <point x="194" y="99" type="curve"/>
      <point x="160" y="1" type="line"/>
      <point x="198" y="1"/>
      <point x="268" y="-6"/>
      <point x="324" y="-6" type="curve" smooth="yes"/>
      <point x="444" y="-6"/>
      <point x="566" y="50"/>
      <point x="566" y="207" type="curve" smooth="yes"/>
      <point x="566" y="308"/>
      <point x="469" y="394"/>
      <point x="314" y="379" type="curve"/>
      <point x="296" y="379" type="line"/>
    </contour>
    <contour>
      <point x="515" y="530" type="curve" smooth="yes"/>
      <point x="515" y="637"/>
      <point x="420" y="676"/>
      <point x="311" y="676" type="curve" smooth="yes"/>
      <point x="264" y="676"/>
      <point x="220" y="672"/>
      <point x="181" y="672" type="curve"/>
      <point x="210" y="612" type="line"/>
      <point x="228" y="620"/>
      <point x="265" y="627"/>
      <point x="297" y="627" type="curve" smooth="yes"/>
      <point x="406" y="627"/>
      <point x="439" y="569"/>
      <point x="439" y="511" type="curve" smooth="yes"/>
      <point x="439" y="445"/>
      <point x="392" y="395"/>
      <point x="309" y="395" type="curve" smooth="yes"/>
      <point x="255" y="395"/>
      <point x="230" y="403"/>
      <point x="212" y="407" type="curve"/>
      <point x="211" y="371" type="line"/>
      <point x="350" y="378" type="line"/>
      <point x="387" y="381"/>
      <point x="405" y="390"/>
      <point x="434" y="404" type="curve" smooth="yes"/>
      <point x="466" y="420"/>
      <point x="515" y="462"/>
    </contour>
    <contour>
      <point x="230" y="2" type="line"/>
      <point x="221" y="114"/>
      <point x="220" y="233"/>
      <point x="221" y="361" type="curve"/>
      <point x="218" y="480"/>
      <point x="220" y="573"/>
      <point x="223" y="672" type="curve"/>
      <point x="173" y="672" type="line"/>
      <point x="146" y="672"/>
      <point x="86" y="676"/>
      <point x="48" y="680" type="curve"/>
      <point x="48" y="666" type="line"/>
      <point x="134" y="656"/>
      <point x="140" y="637"/>
      <point x="140" y="424" type="curve" smooth="yes"/>
      <point x="140" y="250" type="line" smooth="yes"/>
      <point x="140" y="40"/>
      <point x="132" y="19"/>
      <point x="38" y="12" type="curve"/>
      <point x="38" y="-4" type="line"/>
      <point x="91" y="0"/>
      <point x="125" y="1"/>
      <point x="164" y="1" type="curve"/>
    </contour>
  </outline>
</glyph>
<glyph name="C" format="1">
  <advance width="681"/>
  <unicode hex="0043"/>
  <outline>
    <contour>
      <point x="151" y="328" type="line"/>
      <point x="151" y="334"/>
      <point x="151" y="341"/>
      <point x="151" y="348" type="curve" smooth="yes"/>
      <point x="151" y="555"/>
      <point x="254" y="639"/>
      <point x="391" y="639" type="curve" smooth="yes"/>
      <point x="465" y="639"/>
      <point x="520" y="614"/>
      <point x="545" y="589" type="curve" smooth="yes"/>
      <point x="568" y="566"/>
      <point x="578" y="526"/>
      <point x="576" y="465" type="curve"/>
      <point x="593" y="467" type="line"/>
      <point x="583" y="589"/>
      <point x="585" y="645"/>
      <point x="592" y="675" type="curve"/>
      <point x="585" y="676" type="line"/>
      <point x="581" y="672"/>
      <point x="570" y="672"/>
      <point x="563" y="672" type="curve" smooth="yes"/>
      <point x="537" y="672"/>
      <point x="464" y="684"/>
      <point x="398" y="684" type="curve" smooth="yes"/>
      <point x="183" y="684"/>
      <point x="59" y="542"/>
      <point x="59" y="338" type="curve"/>
    </contour>
    <contour>
      <point x="150" y="348" type="curve"/>
      <point x="60" y="351" type="line"/>
      <point x="60" y="347"/>
      <point x="59" y="344"/>
      <point x="59" y="341" type="curve" smooth="yes"/>
      <point x="59" y="120"/>
      <point x="212" y="-17"/>
      <point x="425" y="-17" type="curve" smooth="yes"/>
      <point x="449" y="-17"/>
      <point x="497" y="-14"/>
      <point x="511" y="-14" type="curve" smooth="yes"/>
      <point x="526" y="-14"/>
      <point x="544" y="-16"/>
      <point x="551" y="-19" type="curve"/>
      <point x="554" y="-11" type="line"/>
      <point x="557" y="17"/>
      <point x="570" y="60"/>
      <point x="607" y="174" type="curve"/>
      <point x="589" y="178" type="line"/>
      <point x="567" y="55"/>
      <point x="501" y="25"/>
      <point x="430" y="25" type="curve" smooth="yes"/>
      <point x="251" y="25"/>
      <point x="157" y="176"/>
    </contour>
    <component base="c" xOffset="-12"/>
  </outline>
</glyph>
<glyph name="D" format="1">
  <advance width="719"/>
  <unicode hex="0044"/>
  <outline>
    <contour>
      <point x="182" y="609" type="curve"/>
      <point x="186" y="609"/>
      <point x="247" y="625"/>
      <point x="303" y="625" type="curve" smooth="yes"/>
      <point x="456" y="625"/>
      <point x="560" y="535"/>
      <point x="560" y="325" type="curve" smooth="yes"/>
      <point x="560" y="147"/>
      <point x="475" y="44"/>
      <point x="341" y="44" type="curve" smooth="yes"/>
      <point x="274" y="44"/>
      <point x="233" y="60"/>
      <point x="222" y="68" type="curve"/>
      <point x="153" y="2" type="line"/>
      <point x="191" y="2"/>
      <point x="262" y="-4"/>
      <point x="301" y="-4" type="curve" smooth="yes"/>
      <point x="500" y="-4"/>
      <point x="650" y="135"/>
      <point x="650" y="370" type="curve" smooth="yes"/>
      <point x="650" y="578"/>
      <point x="493" y="674"/>
      <point x="303" y="674" type="curve" smooth="yes"/>
      <point x="240" y="674"/>
      <point x="241" y="672"/>
      <point x="190" y="672" type="curve"/>
      <point x="190" y="663"/>
      <point x="182" y="621"/>
    </contour>
    <contour>
      <point x="226" y="4" type="line"/>
      <point x="224" y="53"/>
      <point x="220" y="100"/>
      <point x="220" y="338" type="curve" smooth="yes"/>
      <point x="220" y="600"/>
      <point x="223" y="634"/>
      <point x="224" y="672" type="curve"/>
      <point x="190" y="672" type="line"/>
      <point x="159" y="672"/>
      <point x="91" y="675"/>
      <point x="48" y="680" type="curve"/>
      <point x="48" y="666" type="line"/>
      <point x="134" y="656"/>
      <point x="140" y="637"/>
      <point x="140" y="424" type="curve" smooth="yes"/>
      <point x="140" y="248" type="line" smooth="yes"/>
      <point x="140" y="38"/>
      <point x="132" y="17"/>
      <point x="38" y="10" type="curve"/>
      <point x="38" y="-4" type="line"/>
      <point x="86" y="0"/>
      <point x="117" y="2"/>
      <point x="153" y="2" type="curve"/>
    </contour>
  </outline>
</glyph>
<glyph name="E" format="1">
  <advance width="603"/>
  <unicode hex="0045"/>
  <outline>
    <contour>
      <point x="190" y="624" type="line" name=""/>
      <point x="206" y="627"/>
      <point x="254" y="632"/>
      <point x="279" y="632" type="curve" name=""/>
      <point x="426" y="632"/>
      <point x="467" y="609"/>
      <point x="475" y="472" type="curve" name=""/>
      <point x="491" y="475" type="line" name=""/>
      <point x="475" y="592"/>
      <point x="475" y="640"/>
      <point x="478" y="680" type="curve" name=""/>
      <point x="470" y="681" type="line" name=""/>
      <point x="438" y="676"/>
      <point x="362" y="672"/>
      <point x="301" y="672" type="curve" name=""/>
      <point x="193" y="672" type="line" name=""/>
    </contour>
    <contour>
      <point x="183" y="325" type="line"/>
      <point x="197" y="326"/>
      <point x="235" y="328"/>
      <point x="248" y="328" type="curve" smooth="yes"/>
      <point x="307" y="328"/>
      <point x="355" y="321"/>
      <point x="389" y="298" type="curve" smooth="yes"/>
      <point x="411" y="284"/>
      <point x="428" y="263"/>
      <point x="448" y="227" type="curve"/>
      <point x="463" y="234" type="line"/>
      <point x="428" y="282"/>
      <point x="403" y="332"/>
      <point x="389" y="376" type="curve" smooth="yes"/>
      <point x="377" y="412"/>
      <point x="370" y="442"/>
      <point x="364" y="474" type="curve"/>
      <point x="347" y="473" type="line"/>
      <point x="375" y="386"/>
      <point x="338" y="367"/>
      <point x="262" y="367" type="curve" smooth="yes"/>
      <point x="237" y="367"/>
      <point x="197" y="370"/>
      <point x="183" y="371" type="curve"/>
    </contour>
    <contour>
      <point x="252" y="4"/>
      <point x="375" y="4"/>
      <point x="494" y="0" type="curve"/>
      <point x="496" y="14" type="line"/>
      <point x="497" y="55"/>
      <point x="520" y="144"/>
      <point x="533" y="181" type="curve"/>
      <point x="516" y="187" type="line"/>
      <point x="494" y="75"/>
      <point x="454" y="44"/>
      <point x="346" y="44" type="curve" smooth="yes"/>
      <point x="297" y="44"/>
      <point x="244" y="55"/>
      <point x="181" y="77" type="curve"/>
      <point x="144" y="4" type="line"/>
    </contour>
    <contour>
      <point x="186" y="4" type="curve"/>
      <point x="185" y="15"/>
      <point x="228" y="26"/>
      <point x="227" y="37" type="curve" smooth="yes"/>
      <point x="221" y="138"/>
      <point x="219" y="255"/>
      <point x="221" y="360" type="curve"/>
      <point x="218" y="476"/>
      <point x="218" y="572"/>
      <point x="222" y="646" type="curve"/>
      <point x="301" y="646" type="line"/>
      <point x="301" y="672" type="line"/>
      <point x="269" y="672"/>
      <point x="125" y="673"/>
      <point x="48" y="680" type="curve"/>
      <point x="48" y="666" type="line"/>
      <point x="134" y="656"/>
      <point x="140" y="633"/>
      <point x="140" y="420" type="curve" smooth="yes"/>
      <point x="140" y="245" type="line" smooth="yes"/>
      <point x="140" y="38"/>
      <point x="132" y="19"/>
      <point x="38" y="12" type="curve"/>
      <point x="38" y="-4" type="line"/>
      <point x="84" y="0"/>
      <point x="122" y="4"/>
    </contour>
  </outline>
</glyph>
<glyph name="F" format="1">
  <advance width="565"/>
  <unicode hex="0046"/>
  <outline>
    <contour>
      <point x="322" y="-4" type="curve"/>
      <point x="322" y="12" type="line"/>
      <point x="230" y="17"/>
      <point x="220" y="38"/>
      <point x="220" y="248" type="curve" smooth="yes"/>
      <point x="220" y="362" type="line"/>
      <point x="140" y="361" type="line"/>
      <point x="140" y="250" type="line" smooth="yes"/>
      <point x="140" y="40"/>
      <point x="132" y="19"/>
      <point x="38" y="12" type="curve"/>
      <point x="38" y="-4" type="line"/>
      <point x="91" y="0"/>
      <point x="151" y="4"/>
      <point x="190" y="4" type="curve" smooth="yes"/>
      <point x="229" y="4"/>
      <point x="271" y="0"/>
    </contour>
    <contour>
      <point x="220" y="362" type="line"/>
      <point x="217" y="461"/>
      <point x="219" y="541"/>
      <point x="220" y="622" type="curve"/>
      <point x="316" y="638" type="line"/>
      <point x="316" y="672" type="line"/>
      <point x="244" y="672"/>
      <point x="137" y="672"/>
      <point x="48" y="680" type="curve"/>
      <point x="48" y="666" type="line"/>
      <point x="134" y="656"/>
      <point x="140" y="637"/>
      <point x="140" y="424" type="curve" smooth="yes"/>
      <point x="140" y="361" type="line"/>
    </contour>
    <contour>
      <point x="197" y="620" type="line"/>
      <point x="217" y="623"/>
      <point x="280" y="628"/>
      <point x="303" y="628" type="curve" smooth="yes"/>
      <point x="445" y="628"/>
      <point x="484" y="609"/>
      <point x="499" y="468" type="curve"/>
      <point x="514" y="471" type="line"/>
      <point x="495" y="577"/>
      <point x="493" y="633"/>
      <point x="495" y="680" type="curve"/>
      <point x="487" y="681" type="line"/>
      <point x="467" y="676"/>
      <point x="414" y="672"/>
      <point x="316" y="672" type="curve"/>
      <point x="188" y="672" type="line"/>
      <point x="188" y="639" type="line"/>
    </contour>
    <contour>
      <point x="204" y="339" type="line"/>
      <point x="218" y="340"/>
      <point x="256" y="342"/>
      <point x="269" y="342" type="curve" smooth="yes"/>
      <point x="311" y="342"/>
      <point x="377" y="337"/>
      <point x="410" y="315" type="curve" smooth="yes"/>
      <point x="432" y="301"/>
      <point x="449" y="280"/>
      <point x="469" y="244" type="curve"/>
      <point x="484" y="251" type="line"/>
      <point x="447" y="302"/>
      <point x="425" y="344"/>
      <point x="410" y="392" type="curve" smooth="yes"/>
      <point x="398" y="428"/>
      <point x="391" y="458"/>
      <point x="385" y="490" type="curve"/>
      <point x="368" y="489" type="line"/>
      <point x="396" y="402"/>
      <point x="359" y="380"/>
      <point x="283" y="380" type="curve" smooth="yes"/>
      <point x="258" y="380"/>
      <point x="218" y="383"/>
      <point x="204" y="384" type="curve"/>
    </contour>
  </outline>
</glyph>
<glyph name="G" format="1">
  <advance width="766"/>
  <unicode hex="0047"/>
  <outline>
    <contour>
      <point x="603" y="171" type="curve" smooth="yes"/>
      <point x="603" y="275"/>
      <point x="612" y="295"/>
      <point x="684" y="302" type="curve"/>
      <point x="684" y="317" type="line"/>
      <point x="630" y="311"/>
      <point x="594" y="309"/>
      <point x="555" y="309" type="curve" smooth="yes"/>
      <point x="510" y="309"/>
      <point x="462" y="314"/>
      <point x="431" y="317" type="curve"/>
      <point x="431" y="302" type="line"/>
      <point x="512" y="297"/>
      <point x="525" y="280"/>
      <point x="525" y="182" type="curve" smooth="yes"/>
      <point x="525" y="142" type="line"/>
      <point x="546" y="142" type="line"/>
      <point x="546" y="14"/>
      <point x="624" y="-7"/>
      <point x="675" y="-4" type="curve"/>
      <point x="675" y="11" type="line"/>
      <point x="624" y="12"/>
      <point x="603" y="71"/>
    </contour>
    <contour>
      <point x="562" y="84" type="curve"/>
      <point x="563" y="200" type="line"/>
      <point x="525" y="204" type="line"/>
      <point x="527" y="101"/>
      <point x="469" y="40"/>
      <point x="373" y="40" type="curve" smooth="yes"/>
      <point x="240" y="40"/>
      <point x="170" y="192"/>
      <point x="170" y="348" type="curve" smooth="yes"/>
      <point x="170" y="555"/>
      <point x="274" y="639"/>
      <point x="401" y="639" type="curve" smooth="yes"/>
      <point x="484" y="639"/>
      <point x="548" y="615"/>
      <point x="574" y="589" type="curve" smooth="yes"/>
      <point x="597" y="566"/>
      <point x="607" y="526"/>
      <point x="605" y="465" type="curve"/>
      <point x="622" y="467" type="line"/>
      <point x="612" y="589"/>
      <point x="614" y="645"/>
      <point x="621" y="675" type="curve"/>
      <point x="614" y="676" type="line"/>
      <point x="610" y="672"/>
      <point x="599" y="672"/>
      <point x="592" y="672" type="curve" smooth="yes"/>
      <point x="566" y="672"/>
      <point x="492" y="684"/>
      <point x="426" y="684" type="curve" smooth="yes"/>
      <point x="206" y="684"/>
      <point x="71" y="542"/>
      <point x="71" y="338" type="curve" smooth="yes"/>
      <point x="71" y="130"/>
      <point x="192" y="-14"/>
      <point x="389" y="-14" type="curve" smooth="yes"/>
      <point x="472" y="-14"/>
      <point x="536" y="27"/>
    </contour>
  </outline>
</glyph>
<glyph name="H" format="1">
  <advance width="760"/>
  <unicode hex="0048"/>
  <outline>
    <contour>
      <point x="206" y="324" type="line"/>
      <point x="252" y="325"/>
      <point x="303" y="327"/>
      <point x="375" y="327" type="curve" smooth="yes"/>
      <point x="458" y="327"/>
      <point x="524" y="325"/>
      <point x="568" y="324" type="curve"/>
      <point x="568" y="378" type="line"/>
      <point x="522" y="376"/>
      <point x="470" y="374"/>
      <point x="391" y="374" type="curve" smooth="yes"/>
      <point x="330" y="374"/>
      <point x="252" y="376"/>
      <point x="206" y="377" type="curve"/>
    </contour>
    <component base="I" xOffset="-3"/>
    <component base="I" xOffset="394"/>
  </outline>
</glyph>
<glyph name="I" format="1">
  <advance width="380"/>
  <unicode hex="0049"/>
  <outline>
    <contour>
      <point x="332" y="-4" type="curve"/>
      <point x="332" y="12" type="line"/>
      <point x="240" y="17"/>
      <point x="230" y="38"/>
      <point x="230" y="248" type="curve" smooth="yes"/>
      <point x="230" y="424" type="line" smooth="yes"/>
      <point x="230" y="637"/>
      <point x="238" y="656"/>
      <point x="322" y="666" type="curve"/>
      <point x="322" y="680" type="line"/>
      <point x="284" y="675"/>
      <point x="219" y="672"/>
      <point x="190" y="672" type="curve" smooth="yes"/>
      <point x="161" y="672"/>
      <point x="98" y="675"/>
      <point x="58" y="680" type="curve"/>
      <point x="58" y="666" type="line"/>
      <point x="144" y="656"/>
      <point x="150" y="637"/>
      <point x="150" y="424" type="curve" smooth="yes"/>
      <point x="150" y="248" type="line" smooth="yes"/>
      <point x="150" y="38"/>
      <point x="142" y="17"/>
      <point x="48" y="10" type="curve"/>
      <point x="48" y="-4" type="line"/>
      <point x="98" y="0"/>
      <point x="154" y="4"/>
      <point x="190" y="4" type="curve" smooth="yes"/>
      <point x="226" y="4"/>
      <point x="284" y="0"/>
    </contour>
  </outline>
</glyph>
<glyph name="J" format="1">
  <advance width="522"/>
  <unicode hex="004A"/>
  <outline>
    <contour>
      <point x="196" y="23" type="curve" smooth="yes"/>
      <point x="267" y="23"/>
      <point x="304" y="71"/>
      <point x="304" y="215" type="curve" smooth="yes"/>
      <point x="304" y="356" type="line"/>
      <point x="384" y="356" type="line"/>
      <point x="384" y="193" type="line" smooth="yes"/>
      <point x="384" y="24"/>
      <point x="298" y="-18"/>
      <point x="205" y="-18" type="curve" smooth="yes"/>
      <point x="153" y="-18"/>
      <point x="116" y="-15"/>
      <point x="86" y="-15" type="curve" smooth="yes"/>
      <point x="73" y="-15"/>
      <point x="50" y="-16"/>
      <point x="42" y="-22" type="curve"/>
      <point x="40" y="-13" type="line"/>
      <point x="44" y="10"/>
      <point x="52" y="50"/>
      <point x="13" y="189" type="curve"/>
      <point x="29" y="194" type="line"/>
      <point x="57" y="60"/>
      <point x="144" y="23"/>
    </contour>
    <contour>
      <point x="384" y="324" type="line"/>
      <point x="304" y="324" type="line"/>
      <point x="304" y="424" type="line" smooth="yes"/>
      <point x="304" y="637"/>
      <point x="288" y="656"/>
      <point x="198" y="666" type="curve"/>
      <point x="198" y="680" type="line"/>
      <point x="242" y="675"/>
      <point x="322" y="672"/>
      <point x="354" y="672" type="curve" smooth="yes"/>
      <point x="380" y="672"/>
      <point x="432" y="676"/>
      <point x="467" y="680" type="curve"/>
      <point x="467" y="666" type="line"/>
      <point x="383" y="656"/>
      <point x="384" y="627"/>
      <point x="384" y="388" type="curve" smooth="yes"/>
    </contour>
  </outline>
</glyph>
<glyph name="K" format="1">
  <advance width="666"/>
  <unicode hex="004B"/>
  <outline>
    <contour>
      <point x="386" y="680" type="curve"/>
      <point x="386" y="666" type="line"/>
      <point x="446" y="664"/>
      <point x="458" y="617"/>
      <point x="344" y="471" type="curve" smooth="yes"/>
      <point x="307" y="424"/>
      <point x="267" y="392"/>
      <point x="239" y="371" type="curve"/>
      <point x="239" y="366" type="line"/>
      <point x="333" y="373" type="line"/>
      <point x="372" y="437"/>
      <point x="397" y="470"/>
      <point x="439" y="520" type="curve" smooth="yes"/>
      <point x="533" y="632"/>
      <point x="554" y="656"/>
      <point x="644" y="666" type="curve"/>
      <point x="644" y="680" type="line"/>
      <point x="606" y="676"/>
      <point x="562" y="672"/>
      <point x="513" y="672" type="curve" smooth="yes"/>
      <point x="468" y="672"/>
      <point x="418" y="676"/>
    </contour>
    <contour>
      <point x="239" y="366" type="line"/>
      <point x="296" y="292"/>
      <point x="481" y="64"/>
      <point x="633" y="-69" type="curve"/>
      <point x="638" y="-62" type="line"/>
      <point x="558" y="55"/>
      <point x="402" y="290"/>
      <point x="347" y="411" type="curve"/>
      <point x="314" y="387" type="line"/>
    </contour>
    <contour>
      <point x="220" y="338" type="line"/>
      <point x="220" y="424" type="line" smooth="yes"/>
      <point x="220" y="637"/>
      <point x="228" y="656"/>
      <point x="298" y="666" type="curve"/>
      <point x="298" y="680" type="line"/>
      <point x="275" y="676"/>
      <point x="216" y="672"/>
      <point x="190" y="672" type="curve" smooth="yes"/>
      <point x="159" y="672"/>
      <point x="91" y="675"/>
      <point x="48" y="680" type="curve"/>
      <point x="48" y="666" type="line"/>
      <point x="134" y="656"/>
      <point x="140" y="637"/>
      <point x="140" y="424" type="curve" smooth="yes"/>
      <point x="140" y="338" type="line"/>
    </contour>
    <contour>
      <point x="306" y="-4" type="curve"/>
      <point x="306" y="12" type="line"/>
      <point x="230" y="17"/>
      <point x="220" y="38"/>
      <point x="220" y="248" type="curve" smooth="yes"/>
      <point x="220" y="361" type="line"/>
      <point x="140" y="361" type="line"/>
      <point x="140" y="248" type="line" smooth="yes"/>
      <point x="140" y="38"/>
      <point x="132" y="17"/>
      <point x="38" y="10" type="curve"/>
      <point x="38" y="-4" type="line"/>
      <point x="91" y="0"/>
      <point x="151" y="4"/>
      <point x="190" y="4" type="curve" smooth="yes"/>
      <point x="223" y="4"/>
      <point x="276" y="-1"/>
    </contour>
  </outline>
</glyph>
<glyph name="L" format="1">
  <advance width="564"/>
  <unicode hex="004C"/>
  <outline>
    <contour>
      <point x="159" y="4" type="line"/>
      <point x="318" y="4"/>
      <point x="408" y="2"/>
      <point x="508" y="0" type="curve"/>
      <point x="510" y="14" type="line"/>
      <point x="514" y="71"/>
      <point x="526" y="144"/>
      <point x="540" y="194" type="curve"/>
      <point x="523" y="200" type="line"/>
      <point x="507" y="81"/>
      <point x="466" y="47"/>
      <point x="375" y="47" type="curve" smooth="yes"/>
      <point x="304" y="47"/>
      <point x="243" y="49"/>
      <point x="159" y="78" type="curve"/>
    </contour>
    <contour>
      <point x="38" y="-4" type="line"/>
      <point x="88" y="0"/>
      <point x="131" y="4"/>
      <point x="182" y="4" type="curve"/>
      <point x="229" y="4" type="line"/>
      <point x="220" y="115"/>
      <point x="220" y="234"/>
      <point x="220" y="361" type="curve" smooth="yes"/>
      <point x="220" y="648"/>
      <point x="229" y="657"/>
      <point x="310" y="666" type="curve"/>
      <point x="310" y="680" type="line"/>
      <point x="269" y="675"/>
      <point x="199" y="672"/>
      <point x="168" y="672" type="curve" smooth="yes"/>
      <point x="142" y="672"/>
      <point x="84" y="676"/>
      <point x="48" y="680" type="curve"/>
      <point x="48" y="666" type="line"/>
      <point x="134" y="656"/>
      <point x="140" y="637"/>
      <point x="140" y="424" type="curve" smooth="yes"/>
      <point x="140" y="248" type="line" smooth="yes"/>
      <point x="140" y="38"/>
      <point x="132" y="17"/>
      <point x="38" y="10" type="curve"/>
    </contour>
  </outline>
</glyph>
<glyph name="M" format="1">
  <advance width="864"/>
  <unicode hex="004D"/>
  <outline>
    <contour>
      <point x="416" y="90" type="line"/>
      <point x="431" y="246" type="line"/>
      <point x="416" y="275"/>
      <point x="397" y="312"/>
      <point x="376" y="353" type="curve" smooth="yes"/>
      <point x="278" y="546"/>
      <point x="242" y="649"/>
      <point x="243" y="676" type="curve"/>
      <point x="156" y="631" type="line"/>
      <point x="162" y="609" type="line"/>
      <point x="201" y="531"/>
      <point x="274" y="380"/>
      <point x="335" y="244" type="curve" smooth="yes"/>
      <point x="404" y="90" type="line"/>
    </contour>
    <contour>
      <point x="416" y="90" type="line"/>
      <point x="455" y="208"/>
      <point x="592" y="560"/>
      <point x="609" y="588" type="curve"/>
      <point x="610" y="661" type="line"/>
      <point x="559" y="676" type="line"/>
      <point x="557" y="589"/>
      <point x="450" y="337"/>
      <point x="399" y="227" type="curve"/>
    </contour>
    <contour>
      <point x="576" y="614" type="line"/>
      <point x="592" y="487"/>
      <point x="607" y="355"/>
      <point x="611" y="293" type="curve" smooth="yes"/>
      <point x="627" y="33"/>
      <point x="614" y="16"/>
      <point x="543" y="12" type="curve"/>
      <point x="543" y="-4" type="line"/>
      <point x="579" y="0"/>
      <point x="639" y="4"/>
      <point x="688" y="4" type="curve" smooth="yes"/>
      <point x="726" y="4"/>
      <point x="786" y="0"/>
      <point x="818" y="-4" type="curve"/>
      <point x="817" y="12" type="line"/>
      <point x="724" y="17"/>
      <point x="708" y="43"/>
      <point x="684" y="352" type="curve" smooth="yes"/>
      <point x="680" y="403" type="line" smooth="yes"/>
      <point x="662" y="635"/>
      <point x="668" y="659"/>
      <point x="773" y="666" type="curve"/>
      <point x="779" y="680" type="line"/>
      <point x="749" y="676"/>
      <point x="697" y="668"/>
      <point x="641" y="668" type="curve" smooth="yes"/>
      <point x="600" y="668"/>
      <point x="578" y="672"/>
      <point x="559" y="676" type="curve"/>
      <point x="564" y="645" type="line"/>
    </contour>
    <contour>
      <point x="266" y="-3" type="curve"/>
      <point x="266" y="13" type="line"/>
      <point x="192" y="18"/>
      <point x="178" y="44"/>
      <point x="191" y="291" type="curve" smooth="yes"/>
      <point x="193" y="330" type="line" smooth="yes"/>
      <point x="201" y="488"/>
      <point x="202" y="555"/>
      <point x="206" y="601" type="curve"/>
      <point x="261" y="676" type="line"/>
      <point x="244" y="672"/>
      <point x="215" y="668"/>
      <point x="178" y="668" type="curve" smooth="yes"/>
      <point x="139" y="668"/>
      <point x="74" y="676"/>
      <point x="37" y="680" type="curve"/>
      <point x="37" y="666" type="line"/>
      <point x="139" y="654"/>
      <point x="150" y="644"/>
      <point x="140" y="403" type="curve" smooth="yes"/>
      <point x="137" y="331" type="line" smooth="yes"/>
      <point x="125" y="37"/>
      <point x="106" y="25"/>
      <point x="19" y="12" type="curve"/>
      <point x="19" y="-4" type="line"/>
      <point x="43" y="0"/>
      <point x="114" y="4"/>
      <point x="158" y="4" type="curve" smooth="yes"/>
      <point x="211" y="4"/>
      <point x="235" y="1"/>
    </contour>
  </outline>
</glyph>
<glyph name="N" format="1">
  <advance width="733"/>
  <unicode hex="004E"/>
  <outline>
    <contour>
      <point x="618" y="71" type="line"/>
      <point x="618" y="353" type="line" smooth="yes"/>
      <point x="618" y="639"/>
      <point x="625" y="659"/>
      <point x="709" y="666" type="curve"/>
      <point x="709" y="680" type="line"/>
      <point x="682" y="676"/>
      <point x="617" y="672"/>
      <point x="583" y="672" type="curve" smooth="yes"/>
      <point x="552" y="672"/>
      <point x="497" y="676"/>
      <point x="467" y="680" type="curve"/>
      <point x="467" y="666" type="line"/>
      <point x="554" y="654"/>
      <point x="570" y="631"/>
      <point x="570" y="403" type="curve" smooth="yes"/>
      <point x="570" y="330"/>
      <point x="566" y="133"/>
      <point x="563" y="91" type="curve"/>
    </contour>
    <contour>
      <point x="614" y="-24" type="curve"/>
      <point x="621" y="-24" type="line"/>
      <point x="618" y="15"/>
      <point x="618" y="99"/>
      <point x="618" y="248" type="curve"/>
      <point x="612" y="254"/>
      <point x="579" y="253"/>
      <point x="574" y="247" type="curve"/>
      <point x="574" y="202"/>
      <point x="577" y="168"/>
      <point x="571" y="175" type="curve" smooth="yes"/>
      <point x="498" y="260"/>
      <point x="424" y="362"/>
      <point x="366" y="445" type="curve" smooth="yes"/>
      <point x="299" y="540"/>
      <point x="233" y="641"/>
      <point x="222" y="676" type="curve"/>
      <point x="204" y="673"/>
      <point x="184" y="672"/>
      <point x="158" y="672" type="curve"/>
      <point x="158" y="606" type="line"/>
      <point x="178" y="579"/>
      <point x="180" y="567"/>
      <point x="204" y="534" type="curve" smooth="yes"/>
      <point x="294" y="418"/>
      <point x="406" y="248"/>
      <point x="541" y="79" type="curve" smooth="yes"/>
      <point x="554" y="64"/>
      <point x="597" y="4"/>
    </contour>
    <contour>
      <point x="287" y="-4" type="curve"/>
      <point x="287" y="12" type="line"/>
      <point x="193" y="26"/>
      <point x="188" y="56"/>
      <point x="188" y="265" type="curve" smooth="yes"/>
      <point x="188" y="313"/>
      <point x="191" y="486"/>
      <point x="195" y="588" type="curve"/>
      <point x="196" y="672" type="line"/>
      <point x="158" y="672" type="line" smooth="yes"/>
      <point x="116" y="672"/>
      <point x="61" y="677"/>
      <point x="28" y="680" type="curve"/>
      <point x="28" y="666" type="line"/>
      <point x="134" y="654"/>
      <point x="140" y="641"/>
      <point x="140" y="400" type="curve" smooth="yes"/>
      <point x="140" y="230" type="line" smooth="yes"/>
      <point x="140" y="56"/>
      <point x="132" y="17"/>
      <point x="36" y="12" type="curve"/>
      <point x="36" y="-4" type="line"/>
      <point x="72" y="0"/>
      <point x="132" y="4"/>
      <point x="173" y="4" type="curve" smooth="yes"/>
      <point x="209" y="4"/>
      <point x="255" y="0"/>
    </contour>
  </outline>
</glyph>
<glyph name="O" format="1">
  <advance width="731"/>
  <unicode hex="004F"/>
  <outline>
    <contour>
      <point x="150" y="357" type="curve" smooth="yes"/>
      <point x="150" y="558"/>
      <point x="227" y="657"/>
      <point x="358" y="657" type="curve" smooth="yes"/>
      <point x="495" y="657"/>
      <point x="584" y="519"/>
      <point x="584" y="325" type="curve" smooth="yes"/>
      <point x="584" y="115"/>
      <point x="512" y="19"/>
      <point x="376" y="19" type="curve" smooth="yes"/>
      <point x="227" y="19"/>
      <point x="150" y="194"/>
    </contour>
    <contour>
      <point x="59" y="345" type="curve" smooth="yes"/>
      <point x="59" y="119"/>
      <point x="186" y="-27"/>
      <point x="370" y="-27" type="curve" smooth="yes"/>
      <point x="529" y="-27"/>
      <point x="672" y="97"/>
      <point x="672" y="347" type="curve" smooth="yes"/>
      <point x="672" y="551"/>
      <point x="553" y="702"/>
      <point x="367" y="702" type="curve" smooth="yes"/>
      <point x="186" y="702"/>
      <point x="59" y="552"/>
    </contour>
  </outline>
</glyph>
<glyph name="P" format="1">
  <advance width="601"/>
  <unicode hex="0050"/>
  <outline>
    <contour>
      <point x="195" y="615" type="line"/>
      <point x="211" y="619"/>
      <point x="249" y="630"/>
      <point x="301" y="630" type="curve" smooth="yes"/>
      <point x="401" y="630"/>
      <point x="471" y="567"/>
      <point x="471" y="459" type="curve" smooth="yes"/>
      <point x="471" y="359"/>
      <point x="407" y="289"/>
      <point x="336" y="289" type="curve" smooth="yes"/>
      <point x="322" y="289"/>
      <point x="311" y="290"/>
      <point x="304" y="291" type="curve"/>
      <point x="301" y="278" type="line"/>
      <point x="311" y="275"/>
      <point x="330" y="269"/>
      <point x="347" y="269" type="curve" smooth="yes"/>
      <point x="455" y="269"/>
      <point x="557" y="344"/>
      <point x="557" y="488" type="curve" smooth="yes"/>
      <point x="557" y="623"/>
      <point x="433" y="676"/>
      <point x="303" y="676" type="curve" smooth="yes"/>
      <point x="269" y="676"/>
      <point x="227" y="672"/>
      <point x="178" y="672" type="curve"/>
    </contour>
    <contour>
      <point x="322" y="-4" type="curve"/>
      <point x="322" y="12" type="line"/>
      <point x="230" y="17"/>
      <point x="220" y="43"/>
      <point x="220" y="248" type="curve" smooth="yes"/>
      <point x="220" y="338" type="line"/>
      <point x="140" y="338" type="line"/>
      <point x="140" y="248" type="line" smooth="yes"/>
      <point x="140" y="38"/>
      <point x="132" y="17"/>
      <point x="38" y="10" type="curve"/>
      <point x="38" y="-4" type="line"/>
      <point x="91" y="0"/>
      <point x="151" y="4"/>
      <point x="190" y="4" type="curve" smooth="yes"/>
      <point x="224" y="4"/>
      <point x="278" y="-1"/>
    </contour>
    <contour>
      <point x="220" y="317" type="line"/>
      <point x="220" y="436"/>
      <point x="221" y="573"/>
      <point x="224" y="672" type="curve"/>
      <point x="178" y="672" type="line"/>
      <point x="150" y="672"/>
      <point x="87" y="675"/>
      <point x="48" y="680" type="curve"/>
      <point x="48" y="666" type="line"/>
      <point x="134" y="656"/>
      <point x="140" y="637"/>
      <point x="140" y="424" type="curve" smooth="yes"/>
      <point x="140" y="317" type="line"/>
    </contour>
  </outline>
</glyph>
<glyph name="Q" format="1">
  <advance width="731"/>
  <unicode hex="0051"/>
  <outline>
    <contour>
      <point x="282" y="-11" type="line"/>
      <point x="296" y="-13"/>
      <point x="310" y="-13"/>
      <point x="321" y="-18" type="curve"/>
      <point x="348" y="-47"/>
      <point x="392" y="-94"/>
      <point x="430" y="-131" type="curve" smooth="yes"/>
      <point x="499" y="-198"/>
      <point x="561" y="-232"/>
      <point x="616" y="-232" type="curve" smooth="yes"/>
      <point x="682" y="-232"/>
      <point x="741" y="-197"/>
      <point x="777" y="-158" type="curve"/>
      <point x="772" y="-145" type="line"/>
      <point x="751" y="-163"/>
      <point x="726" y="-179"/>
      <point x="685" y="-179" type="curve" smooth="yes"/>
      <point x="642" y="-179"/>
      <point x="592" y="-159"/>
      <point x="536" y="-128" type="curve" smooth="yes"/>
      <point x="516" y="-117"/>
      <point x="446" y="-69"/>
      <point x="372" y="2" type="curve"/>
      <point x="316" y="3" type="line"/>
    </contour>
    <component base="O" xOffset="1"/>
  </outline>
</glyph>
<glyph name="R" format="1">
  <advance width="638"/>
  <unicode hex="0052"/>
  <outline>
    <contour>
      <point x="208" y="621" type="line"/>
      <point x="231" y="629"/>
      <point x="265" y="633"/>
      <point x="301" y="633" type="curve" smooth="yes"/>
      <point x="370" y="633"/>
      <point x="455" y="592"/>
      <point x="455" y="473" type="curve" smooth="yes"/>
      <point x="455" y="417"/>
      <point x="429" y="370"/>
      <point x="394" y="347" type="curve" smooth="yes"/>
      <point x="371" y="331"/>
      <point x="331" y="331"/>
      <point x="311" y="331" type="curve" smooth="yes"/>
      <point x="269" y="331"/>
      <point x="220" y="343"/>
      <point x="211" y="345" type="curve"/>
      <point x="211" y="297" type="line"/>
      <point x="223" y="296"/>
      <point x="261" y="294"/>
      <point x="288" y="294" type="curve" smooth="yes"/>
      <point x="320" y="294"/>
      <point x="340" y="288"/>
      <point x="357" y="290" type="curve"/>
      <point x="372" y="317" type="line"/>
      <point x="481" y="349"/>
      <point x="533" y="427"/>
      <point x="533" y="516" type="curve" smooth="yes"/>
      <point x="533" y="623"/>
      <point x="445" y="677"/>
      <point x="325" y="676" type="curve" smooth="yes"/>
      <point x="286" y="676"/>
      <point x="243" y="672"/>
      <point x="196" y="672" type="curve"/>
    </contour>
    <contour>
      <point x="334" y="297" type="line"/>
      <point x="419" y="161"/>
      <point x="490" y="41"/>
      <point x="597" y="-50" type="curve"/>
      <point x="607" y="-40" type="line"/>
      <point x="583" y="-4"/>
      <point x="561" y="31"/>
      <point x="539" y="76" type="curve" smooth="yes"/>
      <point x="493" y="170"/>
      <point x="441" y="261"/>
      <point x="419" y="348" type="curve"/>
    </contour>
    <contour>
      <point x="220" y="317" type="line"/>
      <point x="217" y="436"/>
      <point x="219" y="573"/>
      <point x="222" y="672" type="curve"/>
      <point x="182" y="672" type="line"/>
      <point x="151" y="672"/>
      <point x="91" y="675"/>
      <point x="48" y="680" type="curve"/>
      <point x="48" y="666" type="line"/>
      <point x="134" y="656"/>
      <point x="140" y="637"/>
      <point x="140" y="424" type="curve" smooth="yes"/>
      <point x="140" y="317" type="line"/>
    </contour>
    <contour>
      <point x="306" y="-4" type="curve"/>
      <point x="306" y="12" type="line"/>
      <point x="230" y="17"/>
      <point x="220" y="38"/>
      <point x="220" y="248" type="curve" smooth="yes"/>
      <point x="220" y="338" type="line"/>
      <point x="140" y="338" type="line"/>
      <point x="140" y="248" type="line" smooth="yes"/>
      <point x="140" y="38"/>
      <point x="132" y="17"/>
      <point x="38" y="10" type="curve"/>
      <point x="38" y="-4" type="line"/>
      <point x="91" y="0"/>
      <point x="151" y="4"/>
      <point x="190" y="4" type="curve" smooth="yes"/>
      <point x="223" y="4"/>
      <point x="276" y="-1"/>
    </contour>
  </outline>
</glyph>
<glyph name="S" format="1">
  <advance width="528"/>
  <unicode hex="0053"/>
  <outline>
    <contour>
      <point x="273" y="683" type="curve" smooth="yes"/>
      <point x="327" y="683"/>
      <point x="382" y="668"/>
      <point x="401" y="668" type="curve" smooth="yes"/>
      <point x="415" y="668"/>
      <point x="424" y="671"/>
      <point x="430" y="676" type="curve"/>
      <point x="438" y="675" type="line"/>
      <point x="431" y="646"/>
      <point x="430" y="565"/>
      <point x="447" y="458" type="curve"/>
      <point x="431" y="455" type="line"/>
      <point x="421" y="614"/>
      <point x="346" y="638"/>
      <point x="264" y="638" type="curve" smooth="yes"/>
      <point x="210" y="638"/>
      <point x="161" y="605"/>
      <point x="161" y="540" type="curve" smooth="yes"/>
      <point x="161" y="473"/>
      <point x="229" y="433"/>
      <point x="266" y="405" type="curve" smooth="yes"/>
      <point x="312" y="370"/>
      <point x="365" y="338"/>
      <point x="385" y="318" type="curve" smooth="yes"/>
      <point x="443" y="261"/>
      <point x="459" y="221"/>
      <point x="459" y="159" type="curve" smooth="yes"/>
      <point x="459" y="87"/>
      <point x="403" y="-18"/>
      <point x="253" y="-18" type="curve" smooth="yes"/>
      <point x="203" y="-18"/>
      <point x="147" y="0"/>
      <point x="115" y="0" type="curve" smooth="yes"/>
      <point x="105" y="0"/>
      <point x="93" y="-2"/>
      <point x="87" y="-10" type="curve"/>
      <point x="80" y="-10" type="line"/>
      <point x="82" y="63"/>
      <point x="79" y="120"/>
      <point x="51" y="216" type="curve"/>
      <point x="68" y="220" type="line"/>
      <point x="112" y="60"/>
      <point x="159" y="25"/>
      <point x="269" y="25" type="curve" smooth="yes"/>
      <point x="333" y="25"/>
      <point x="380" y="82"/>
      <point x="380" y="137" type="curve" smooth="yes"/>
      <point x="380" y="205"/>
      <point x="327" y="269"/>
      <point x="196" y="350" type="curve" smooth="yes"/>
      <point x="155" y="375"/>
      <point x="80" y="433"/>
      <point x="80" y="525" type="curve" smooth="yes"/>
      <point x="80" y="625"/>
      <point x="164" y="683"/>
    </contour>
  </outline>
</glyph>
<glyph name="T" format="1">
  <advance width="645"/>
  <unicode hex="0054"/>
  <outline>
    <contour>
      <point x="334" y="622" type="curve"/>
      <point x="334" y="635"/>
      <point x="334" y="651"/>
      <point x="334" y="663" type="curve"/>
      <point x="306" y="663" type="line" smooth="yes"/>
      <point x="179" y="663"/>
      <point x="114" y="670"/>
      <point x="84" y="701" type="curve"/>
      <point x="74" y="700" type="line"/>
      <point x="74" y="661"/>
      <point x="64" y="568"/>
      <point x="37" y="488" type="curve"/>
      <point x="53" y="486" type="line"/>
      <point x="81" y="601"/>
      <point x="123" y="622"/>
      <point x="283" y="622" type="curve"/>
      <point x="298" y="622"/>
      <point x="296" y="623"/>
    </contour>
    <contour>
      <point x="264" y="623" type="curve"/>
      <point x="301" y="624"/>
      <point x="347" y="622"/>
      <point x="421" y="622" type="curve" smooth="yes"/>
      <point x="548" y="622"/>
      <point x="592" y="596"/>
      <point x="601" y="487" type="curve"/>
      <point x="617" y="490" type="line"/>
      <point x="598" y="582"/>
      <point x="595" y="666"/>
      <point x="600" y="700" type="curve"/>
      <point x="591" y="701" type="line"/>
      <point x="568" y="674"/>
      <point x="508" y="663"/>
      <point x="320" y="663" type="curve" smooth="yes"/>
      <point x="264" y="663" type="line"/>
      <point x="264" y="651"/>
      <point x="264" y="636"/>
    </contour>
    <contour>
      <point x="479" y="-4" type="curve"/>
      <point x="479" y="12" type="line"/>
      <point x="387" y="17"/>
      <point x="377" y="38"/>
      <point x="377" y="248" type="curve" smooth="yes"/>
      <point x="377" y="338" type="line"/>
      <point x="297" y="338" type="line"/>
      <point x="297" y="248" type="line" smooth="yes"/>
      <point x="297" y="38"/>
      <point x="289" y="17"/>
      <point x="195" y="10" type="curve"/>
      <point x="195" y="-4" type="line"/>
      <point x="245" y="0"/>
      <point x="301" y="4"/>
      <point x="337" y="4" type="curve" smooth="yes"/>
      <point x="373" y="4"/>
      <point x="431" y="0"/>
    </contour>
    <contour>
      <point x="296" y="628" type="line"/>
      <point x="297" y="524"/>
      <point x="297" y="493"/>
      <point x="297" y="431" type="curve" smooth="yes"/>
      <point x="297" y="324" type="line"/>
      <point x="377" y="324" type="line"/>
      <point x="377" y="431" type="line" smooth="yes"/>
      <point x="377" y="493"/>
      <point x="377" y="524"/>
      <point x="378" y="628" type="curve"/>
    </contour>
  </outline>
</glyph>
<glyph name="U" format="1">
  <advance width="736"/>
  <unicode hex="0055"/>
  <outline>
    <contour>
      <point x="602" y="266" type="curve" smooth="yes"/>
      <point x="602" y="409" type="line" smooth="yes"/>
      <point x="602" y="639"/>
      <point x="617" y="662"/>
      <point x="691" y="666" type="curve"/>
      <point x="691" y="680" type="line"/>
      <point x="664" y="676"/>
      <point x="618" y="672"/>
      <point x="574" y="672" type="curve" smooth="yes"/>
      <point x="534" y="672"/>
      <point x="488" y="676"/>
      <point x="455" y="680" type="curve"/>
      <point x="455" y="666" type="line"/>
      <point x="542" y="653"/>
      <point x="545" y="619"/>
      <point x="545" y="267" type="curve" smooth="yes"/>
      <point x="545" y="107"/>
      <point x="483" y="48"/>
      <point x="386" y="48" type="curve" smooth="yes"/>
      <point x="273" y="48"/>
      <point x="206" y="123"/>
      <point x="206" y="268" type="curve" smooth="yes"/>
      <point x="206" y="369" type="line" smooth="yes"/>
      <point x="206" y="631"/>
      <point x="213" y="658"/>
      <point x="295" y="666" type="curve"/>
      <point x="295" y="680" type="line"/>
      <point x="264" y="677"/>
      <point x="217" y="672"/>
      <point x="183" y="672" type="curve" smooth="yes"/>
      <point x="150" y="672"/>
      <point x="76" y="675"/>
      <point x="31" y="680" type="curve"/>
      <point x="31" y="666" type="line"/>
      <point x="121" y="656"/>
      <point x="126" y="622"/>
      <point x="126" y="436" type="curve" smooth="yes"/>
      <point x="126" y="273" type="line" smooth="yes"/>
      <point x="126" y="56"/>
      <point x="213" y="-14"/>
      <point x="378" y="-14" type="curve" smooth="yes"/>
      <point x="502" y="-14"/>
      <point x="602" y="45"/>
    </contour>
  </outline>
</glyph>
<glyph name="V" format="1">
  <advance width="700"/>
  <unicode hex="0056"/>
  <outline>
    <contour>
      <point x="371" y="130" type="line"/>
      <point x="341" y="199"/>
      <point x="294" y="324"/>
      <point x="266" y="404" type="curve" smooth="yes"/>
      <point x="185" y="636"/>
      <point x="188" y="664"/>
      <point x="256" y="666" type="curve"/>
      <point x="256" y="680" type="line"/>
      <point x="220" y="676"/>
      <point x="200" y="672"/>
      <point x="153" y="672" type="curve" smooth="yes"/>
      <point x="83" y="672"/>
      <point x="36" y="676"/>
      <point x="4" y="680" type="curve"/>
      <point x="4" y="666" type="line"/>
      <point x="75" y="660"/>
      <point x="93" y="627"/>
      <point x="198" y="356" type="curve" smooth="yes"/>
      <point x="345" y="-24" type="line"/>
    </contour>
    <contour>
      <point x="357" y="-24" type="line"/>
      <point x="518" y="395" type="line" smooth="yes"/>
      <point x="611" y="637"/>
      <point x="643" y="661"/>
      <point x="700" y="666" type="curve"/>
      <point x="700" y="680" type="line"/>
      <point x="674" y="676"/>
      <point x="631" y="672"/>
      <point x="576" y="672" type="curve" smooth="yes"/>
      <point x="551" y="672"/>
      <point x="498" y="676"/>
      <point x="469" y="680" type="curve"/>
      <point x="469" y="666" type="line"/>
      <point x="520" y="661"/>
      <point x="527" y="645"/>
      <point x="494" y="510" type="curve" smooth="yes"/>
      <point x="460" y="372"/>
      <point x="376" y="194"/>
      <point x="330" y="77" type="curve"/>
      <point x="345" y="-24" type="line"/>
    </contour>
  </outline>
</glyph>
<glyph name="W" format="1">
  <advance width="956"/>
  <unicode hex="0057"/>
  <outline>
    <contour>
      <point x="270" y="-24" type="line"/>
      <point x="329" y="127" type="line" smooth="yes"/>
      <point x="402" y="291"/>
      <point x="452" y="419"/>
      <point x="508" y="543" type="curve"/>
      <point x="489" y="670" type="line"/>
      <point x="417" y="469" type="line" smooth="yes"/>
      <point x="350" y="281"/>
      <point x="299" y="190"/>
      <point x="257" y="100" type="curve"/>
    </contour>
    <contour>
      <point x="677" y="-24" type="line"/>
      <point x="801" y="413" type="line" smooth="yes"/>
      <point x="867" y="644"/>
      <point x="876" y="660"/>
      <point x="942" y="666" type="curve"/>
      <point x="942" y="680" type="line"/>
      <point x="917" y="677"/>
      <point x="849" y="676"/>
      <point x="842" y="676" type="curve" smooth="yes"/>
      <point x="821" y="676"/>
      <point x="754" y="677"/>
      <point x="724" y="680" type="curve"/>
      <point x="724" y="666" type="line"/>
      <point x="785" y="660"/>
      <point x="800" y="647"/>
      <point x="753" y="451" type="curve" smooth="yes"/>
      <point x="729" y="349"/>
      <point x="691" y="213"/>
      <point x="650" y="76" type="curve"/>
    </contour>
    <contour>
      <point x="0" y="666" type="line"/>
      <point x="78" y="656"/>
      <point x="84" y="647"/>
      <point x="168" y="324" type="curve" smooth="yes"/>
      <point x="258" y="-24" type="line"/>
      <point x="270" y="-24" type="line"/>
      <point x="297" y="155" type="line"/>
      <point x="262" y="264"/>
      <point x="239" y="361"/>
      <point x="217" y="460" type="curve" smooth="yes"/>
      <point x="176" y="647"/>
      <point x="179" y="659"/>
      <point x="236" y="666" type="curve"/>
      <point x="236" y="680" type="line"/>
      <point x="208" y="676"/>
      <point x="168" y="672"/>
      <point x="138" y="672" type="curve" smooth="yes"/>
      <point x="114" y="672"/>
      <point x="27" y="676"/>
      <point x="0" y="680" type="curve"/>
    </contour>
    <contour>
      <point x="474" y="504" type="line"/>
      <point x="546" y="327"/>
      <point x="595" y="204"/>
      <point x="676" y="-24" type="curve"/>
      <point x="688" y="-24" type="line"/>
      <point x="706" y="152" type="line"/>
      <point x="651" y="266"/>
      <point x="592" y="420"/>
      <point x="550" y="538" type="curve" smooth="yes"/>
      <point x="503" y="670" type="line"/>
      <point x="489" y="670" type="line"/>
    </contour>
  </outline>
</glyph>
<glyph name="Z" format="1">
  <advance width="638"/>
  <unicode hex="005A"/>
  <outline>
    <contour>
      <point x="78" y="7" type="line"/>
      <point x="83" y="-4" type="line"/>
      <point x="144" y="0"/>
      <point x="304" y="4"/>
      <point x="392" y="4" type="curve"/>
      <point x="392" y="26" type="line"/>
      <point x="320" y="24"/>
      <point x="197" y="33"/>
      <point x="202" y="44" type="curve" smooth="yes"/>
      <point x="279" y="206"/>
      <point x="416" y="417"/>
      <point x="490" y="549" type="curve" smooth="yes"/>
      <point x="557" y="666" type="line"/>
      <point x="557" y="680" type="line"/>
      <point x="507" y="673"/>
      <point x="319" y="672"/>
      <point x="258" y="672" type="curve"/>
      <point x="258" y="640" type="line"/>
      <point x="433" y="642" type="line"/>
      <point x="390" y="542"/>
      <point x="305" y="415"/>
      <point x="171" y="174" type="curve" smooth="yes"/>
    </contour>
    <contour>
      <point x="131" y="4" type="line"/>
      <point x="152" y="4"/>
      <point x="171" y="4"/>
      <point x="190" y="4" type="curve" smooth="yes"/>
      <point x="335" y="4"/>
      <point x="449" y="3"/>
      <point x="535" y="0" type="curve"/>
      <point x="537" y="15" type="line"/>
      <point x="540" y="87"/>
      <point x="549" y="158"/>
      <point x="560" y="195" type="curve"/>
      <point x="544" y="199" type="line"/>
      <point x="530" y="79"/>
      <point x="492" y="46"/>
      <point x="329" y="46" type="curve" smooth="yes"/>
      <point x="288" y="46"/>
      <point x="220" y="47"/>
      <point x="138" y="62" type="curve"/>
    </contour>
    <contour>
      <point x="499" y="614" type="curve"/>
      <point x="499" y="626"/>
      <point x="513" y="663"/>
      <point x="513" y="673" type="curve"/>
      <point x="276" y="672" type="line" smooth="yes"/>
      <point x="187" y="672"/>
      <point x="160" y="672"/>
      <point x="125" y="678" type="curve"/>
      <point x="116" y="678" type="line"/>
      <point x="116" y="639"/>
      <point x="104" y="547"/>
      <point x="85" y="469" type="curve"/>
      <point x="99" y="466" type="line"/>
      <point x="117" y="587"/>
      <point x="161" y="629"/>
      <point x="354" y="629" type="curve" smooth="yes"/>
      <point x="392" y="629"/>
      <point x="465" y="622"/>
    </contour>
  </outline>
</glyph>
<glyph name="A.001" format="1">
  <advance width="672"/>
  <outline>
    <contour>
      <point x="417" y="162" type="curve" smooth="yes"/>
      <point x="458" y="28"/>
      <point x="445" y="13"/>
      <point x="390" y="12" type="curve"/>
      <point x="390" y="-2" type="line"/>
      <point x="421" y="0"/>
      <point x="499" y="2"/>
      <point x="519" y="2" type="curve" smooth="yes"/>
      <point x="545" y="2"/>
      <point x="627" y="0"/>
      <point x="663" y="-2" type="curve"/>
      <point x="663" y="13" type="line"/>
      <point x="587" y="17"/>
      <point x="578" y="32"/>
      <point x="491" y="248" type="curve" smooth="yes"/>
      <point x="453" y="342"/>
      <point x="347" y="597"/>
      <point x="330" y="678" type="curve"/>
      <point x="306" y="674"/>
      <point x="275" y="674"/>
      <point x="241" y="674" type="curve" smooth="yes"/>
      <point x="204" y="674"/>
      <point x="164" y="676"/>
      <point x="130" y="678" type="curve"/>
      <point x="130" y="659" type="line"/>
      <point x="186" y="665"/>
      <point x="228" y="646"/>
      <point x="270" y="532" type="curve" smooth="yes"/>
      <point x="272" y="527"/>
      <point x="278" y="513"/>
      <point x="280" y="508" type="curve" smooth="yes"/>
      <point x="328" y="391"/>
      <point x="388" y="256"/>
    </contour>
    <contour>
      <point x="174" y="150" type="line"/>
      <point x="207" y="151"/>
      <point x="257" y="153"/>
      <point x="307" y="153" type="curve" smooth="yes"/>
      <point x="346" y="153"/>
      <point x="405" y="151"/>
      <point x="437" y="150" type="curve"/>
      <point x="437" y="200" type="line"/>
      <point x="404" y="198"/>
      <point x="366" y="196"/>
      <point x="306" y="196" type="curve" smooth="yes"/>
      <point x="265" y="196"/>
      <point x="207" y="198"/>
      <point x="174" y="199" type="curve"/>
    </contour>
    <contour>
      <point x="291" y="610" type="line"/>
      <point x="205" y="334" type="line" smooth="yes"/>
      <point x="118" y="56"/>
      <point x="85" y="20"/>
      <point x="7" y="12" type="curve"/>
      <point x="7" y="-2" type="line"/>
      <point x="34" y="0"/>
      <point x="79" y="2"/>
      <point x="118" y="2" type="curve" smooth="yes"/>
      <point x="144" y="2"/>
      <point x="211" y="-1"/>
      <point x="240" y="-2" type="curve"/>
      <point x="240" y="12" type="line"/>
      <point x="180" y="14"/>
      <point x="177" y="28"/>
      <point x="224" y="205" type="curve" smooth="yes"/>
      <point x="242" y="273"/>
      <point x="317" y="482"/>
      <point x="344" y="569" type="curve"/>
      <point x="337" y="612" type="line"/>
    </contour>
  </outline>
</glyph>
<glyph name="CapVertStroke" format="1">
  <advance width="565"/>
  <outline>
    <contour>
      <point x="256" y="50" type="line"/>
      <point x="221" y="50" type="line"/>
      <point x="221" y="619" type="line"/>
      <point x="238" y="619" type="line"/>
      <point x="238" y="669" type="line"/>
      <point x="25" y="669" type="line"/>
      <point x="25" y="656" type="line"/>
      <point x="99" y="650"/>
      <point x="119" y="616"/>
      <point x="119" y="572" type="curve" smooth="yes"/>
      <point x="119" y="97" type="line" smooth="yes"/>
      <point x="119" y="53"/>
      <point x="99" y="19"/>
      <point x="25" y="13" type="curve"/>
      <point x="25" y="0" type="line"/>
      <point x="256" y="0" type="line"/>
    </contour>
  </outline>
</glyph>
<glyph name="I.Bottom.Minor" format="1">
  <advance width="343"/>
  <outline>
    <contour>
      <point x="122" y="338" type="line"/>
      <point x="122" y="113" type="line" smooth="yes"/>
      <point x="122" y="47"/>
      <point x="111" y="27"/>
      <point x="37" y="16" type="curve"/>
      <point x="37" y="0" type="line"/>
      <point x="221" y="0" type="line"/>
      <point x="221" y="338" type="line"/>
    </contour>
  </outline>
</glyph>
<glyph name="I.Top.Major" format="1">
  <advance width="380"/>
  <outline>
    <contour>
      <point x="342" y="-4" type="curve"/>
      <point x="342" y="12" type="line"/>
      <point x="250" y="17"/>
      <point x="240" y="38"/>
      <point x="240" y="248" type="curve" smooth="yes"/>
      <point x="240" y="424" type="line" smooth="yes"/>
      <point x="240" y="637"/>
      <point x="248" y="656"/>
      <point x="332" y="666" type="curve"/>
      <point x="332" y="680" type="line"/>
      <point x="291" y="675"/>
      <point x="221" y="673"/>
      <point x="190" y="673" type="curve" smooth="yes"/>
      <point x="159" y="673"/>
      <point x="91" y="675"/>
      <point x="48" y="680" type="curve"/>
      <point x="48" y="666" type="line"/>
      <point x="134" y="656"/>
      <point x="140" y="637"/>
      <point x="140" y="424" type="curve" smooth="yes"/>
      <point x="140" y="248" type="line" smooth="yes"/>
      <point x="140" y="38"/>
      <point x="132" y="17"/>
      <point x="38" y="10" type="curve"/>
      <point x="38" y="-4" type="line"/>
      <point x="91" y="0"/>
      <point x="151" y="4"/>
      <point x="190" y="4" type="curve" smooth="yes"/>
      <point x="229" y="4"/>
      <point x="291" y="0"/>
    </contour>
  </outline>
</glyph>
<glyph name="I.Top.Minor" format="1">
  <advance width="343"/>
  <outline>
    <contour>
      <point x="221" y="332" type="line"/>
      <point x="221" y="557" type="line" smooth="yes"/>
      <point x="221" y="623"/>
      <point x="232" y="643"/>
      <point x="306" y="654" type="curve"/>
      <point x="306" y="670" type="line"/>
      <point x="122" y="670" type="line"/>
      <point x="122" y="332" type="line"/>
    </contour>
  </outline>
</glyph>
<glyph name="I.Top" format="1">
  <advance width="343"/>
  <outline>
    <contour>
      <point x="221" y="332" type="line"/>
      <point x="221" y="557" type="line" smooth="yes"/>
      <point x="221" y="623"/>
      <point x="232" y="643"/>
      <point x="306" y="654" type="curve"/>
      <point x="306" y="670" type="line"/>
      <point x="122" y="670" type="line"/>
      <point x="122" y="332" type="line"/>
    </contour>
    <contour>
      <point x="122" y="332" type="line"/>
      <point x="221" y="332" type="line"/>
      <point x="221" y="670" type="line"/>
      <point x="24" y="670" type="line"/>
      <point x="24" y="654" type="line"/>
      <point x="108" y="644"/>
      <point x="122" y="632"/>
      <point x="122" y="503" type="curve" smooth="yes"/>
    </contour>
  </outline>
</glyph>
<glyph name="K.001" format="1">
  <advance width="666"/>
  <outline>
    <contour>
      <point x="240" y="338" type="line"/>
      <point x="240" y="424" type="line" smooth="yes"/>
      <point x="240" y="637"/>
      <point x="248" y="656"/>
      <point x="318" y="666" type="curve"/>
      <point x="318" y="680" type="line"/>
      <point x="291" y="675"/>
      <point x="221" y="672"/>
      <point x="190" y="672" type="curve" smooth="yes"/>
      <point x="159" y="672"/>
      <point x="91" y="675"/>
      <point x="48" y="680" type="curve"/>
      <point x="48" y="666" type="line"/>
      <point x="134" y="656"/>
      <point x="140" y="637"/>
      <point x="140" y="424" type="curve" smooth="yes"/>
      <point x="140" y="338" type="line"/>
    </contour>
    <contour>
      <point x="326" y="-4" type="curve"/>
      <point x="326" y="12" type="line"/>
      <point x="250" y="17"/>
      <point x="240" y="38"/>
      <point x="240" y="248" type="curve" smooth="yes"/>
      <point x="240" y="361" type="line"/>
      <point x="140" y="361" type="line"/>
      <point x="140" y="248" type="line" smooth="yes"/>
      <point x="140" y="38"/>
      <point x="132" y="17"/>
      <point x="38" y="10" type="curve"/>
      <point x="38" y="-4" type="line"/>
      <point x="91" y="0"/>
      <point x="151" y="4"/>
      <point x="190" y="4" type="curve" smooth="yes"/>
      <point x="229" y="4"/>
      <point x="291" y="0"/>
    </contour>
    <contour>
      <point x="259" y="361" type="line"/>
      <point x="338" y="366"/>
      <point x="371" y="335"/>
      <point x="388" y="259" type="curve" smooth="yes"/>
      <point x="403" y="193"/>
      <point x="407" y="133"/>
      <point x="417" y="92" type="curve" smooth="yes"/>
      <point x="438" y="8"/>
      <point x="497" y="-10"/>
      <point x="549" y="-10" type="curve" smooth="yes"/>
      <point x="579" y="-10"/>
      <point x="629" y="-4"/>
      <point x="640" y="-3" type="curve"/>
      <point x="640" y="12" type="line"/>
      <point x="585" y="7"/>
      <point x="540" y="30"/>
      <point x="518" y="138" type="curve" smooth="yes"/>
      <point x="499" y="235"/>
      <point x="478" y="313"/>
      <point x="443" y="350" type="curve" smooth="yes"/>
      <point x="410" y="385"/>
      <point x="366" y="390"/>
      <point x="296" y="390" type="curve"/>
    </contour>
    <contour>
      <point x="406" y="680" type="curve"/>
      <point x="406" y="666" type="line"/>
      <point x="466" y="664"/>
      <point x="480" y="614"/>
      <point x="364" y="466" type="curve" smooth="yes"/>
      <point x="327" y="419"/>
      <point x="287" y="385"/>
      <point x="259" y="366" type="curve"/>
      <point x="259" y="361" type="line"/>
      <point x="358" y="368" type="line"/>
      <point x="398" y="434"/>
      <point x="430" y="469"/>
      <point x="473" y="520" type="curve" smooth="yes"/>
      <point x="566" y="631"/>
      <point x="586" y="656"/>
      <point x="674" y="666" type="curve"/>
      <point x="674" y="680" type="line"/>
      <point x="633" y="676"/>
      <point x="586" y="672"/>
      <point x="533" y="672" type="curve" smooth="yes"/>
      <point x="488" y="672"/>
      <point x="438" y="676"/>
    </contour>
  </outline>
</glyph>
<glyph name="K.002" format="1">
  <advance width="666"/>
  <outline>
    <contour>
      <point x="259" y="361" type="line"/>
      <point x="498" y="3" type="line"/>
      <point x="675" y="0" type="line"/>
      <point x="675" y="11" type="line"/>
      <point x="643" y="19"/>
      <point x="595" y="25"/>
      <point x="561" y="77" type="curve" smooth="yes"/>
      <point x="346" y="406" type="line"/>
    </contour>
    <contour>
      <point x="406" y="680" type="curve"/>
      <point x="406" y="666" type="line"/>
      <point x="466" y="664"/>
      <point x="480" y="614"/>
      <point x="364" y="466" type="curve" smooth="yes"/>
      <point x="327" y="419"/>
      <point x="287" y="387"/>
      <point x="259" y="366" type="curve"/>
      <point x="259" y="361" type="line"/>
      <point x="367" y="368" type="line"/>
      <point x="407" y="434"/>
      <point x="430" y="469"/>
      <point x="473" y="520" type="curve" smooth="yes"/>
      <point x="566" y="631"/>
      <point x="586" y="656"/>
      <point x="674" y="666" type="curve"/>
      <point x="674" y="680" type="line"/>
      <point x="633" y="676"/>
      <point x="586" y="672"/>
      <point x="533" y="672" type="curve" smooth="yes"/>
      <point x="488" y="672"/>
      <point x="438" y="676"/>
    </contour>
    <contour>
      <point x="240" y="338" type="line"/>
      <point x="240" y="424" type="line" smooth="yes"/>
      <point x="240" y="637"/>
      <point x="248" y="656"/>
      <point x="318" y="666" type="curve"/>
      <point x="318" y="680" type="line"/>
      <point x="291" y="675"/>
      <point x="221" y="672"/>
      <point x="190" y="672" type="curve" smooth="yes"/>
      <point x="159" y="672"/>
      <point x="91" y="675"/>
      <point x="48" y="680" type="curve"/>
      <point x="48" y="666" type="line"/>
      <point x="134" y="656"/>
      <point x="140" y="637"/>
      <point x="140" y="424" type="curve" smooth="yes"/>
      <point x="140" y="338" type="line"/>
    </contour>
    <contour>
      <point x="326" y="-4" type="curve"/>
      <point x="326" y="12" type="line"/>
      <point x="250" y="17"/>
      <point x="240" y="38"/>
      <point x="240" y="248" type="curve" smooth="yes"/>
      <point x="240" y="361" type="line"/>
      <point x="140" y="361" type="line"/>
      <point x="140" y="248" type="line" smooth="yes"/>
      <point x="140" y="38"/>
      <point x="132" y="17"/>
      <point x="38" y="10" type="curve"/>
      <point x="38" y="-4" type="line"/>
      <point x="91" y="0"/>
      <point x="151" y="4"/>
      <point x="190" y="4" type="curve" smooth="yes"/>
      <point x="229" y="4"/>
      <point x="291" y="0"/>
    </contour>
  </outline>
</glyph>
<glyph name="M.001" format="1">
  <advance width="833"/>
  <outline>
    <contour>
      <point x="279" y="0" type="line"/>
      <point x="279" y="13" type="line"/>
      <point x="190" y="28"/>
      <point x="174" y="52"/>
      <point x="176" y="162" type="curve" smooth="yes"/>
      <point x="184" y="584" type="line"/>
      <point x="185" y="670" type="line"/>
      <point x="27" y="670" type="line"/>
      <point x="27" y="658" type="line"/>
      <point x="121" y="644"/>
      <point x="135" y="628"/>
      <point x="132" y="539" type="curve" smooth="yes"/>
      <point x="122" y="208" type="line" smooth="yes"/>
      <point x="117" y="53"/>
      <point x="103" y="26"/>
      <point x="17" y="13" type="curve"/>
      <point x="17" y="0" type="line"/>
    </contour>
    <contour>
      <point x="395" y="7" type="line"/>
      <point x="428" y="169" type="line"/>
      <point x="388" y="265"/>
      <point x="277" y="569"/>
      <point x="250" y="670" type="curve"/>
      <point x="160" y="670" type="line"/>
      <point x="160" y="591" type="line"/>
      <point x="236" y="406"/>
      <point x="311" y="210"/>
      <point x="383" y="7" type="curve"/>
    </contour>
    <contour>
      <point x="395" y="7" type="line"/>
      <point x="457" y="205"/>
      <point x="512" y="394"/>
      <point x="576" y="570" type="curve"/>
      <point x="603" y="670" type="line"/>
      <point x="542" y="670" type="line"/>
      <point x="539" y="628"/>
      <point x="418" y="239"/>
      <point x="377" y="131" type="curve"/>
    </contour>
    <contour>
      <point x="563" y="604" type="line"/>
      <point x="597" y="136" type="line" smooth="yes"/>
      <point x="602" y="68"/>
      <point x="597" y="22"/>
      <point x="519" y="13" type="curve"/>
      <point x="519" y="0" type="line"/>
      <point x="792" y="0" type="line"/>
      <point x="792" y="13" type="line"/>
      <point x="738" y="16"/>
      <point x="709" y="46"/>
      <point x="701" y="134" type="curve" smooth="yes"/>
      <point x="668" y="511" type="line" smooth="yes"/>
      <point x="660" y="606"/>
      <point x="659" y="640"/>
      <point x="743" y="658" type="curve"/>
      <point x="743" y="670" type="line"/>
      <point x="543" y="670" type="line"/>
    </contour>
  </outline>
</glyph>
<glyph name="O.001" format="1">
  <advance width="730"/>
  <outline>
    <contour>
      <point x="170" y="222" type="curve" smooth="yes"/>
      <point x="109" y="370"/>
      <point x="121" y="555"/>
      <point x="248" y="610" type="curve" smooth="yes"/>
      <point x="376" y="666"/>
      <point x="500" y="582"/>
      <point x="559" y="444" type="curve" smooth="yes"/>
      <point x="621" y="295"/>
      <point x="609" y="111"/>
      <point x="482" y="56" type="curve" smooth="yes"/>
      <point x="354" y="0"/>
      <point x="230" y="82"/>
    </contour>
    <contour>
      <point x="48" y="302" type="curve" smooth="yes"/>
      <point x="67" y="107"/>
      <point x="213" y="-31"/>
      <point x="399" y="-13" type="curve" smooth="yes"/>
      <point x="585" y="5"/>
      <point x="701" y="169"/>
      <point x="682" y="364" type="curve" smooth="yes"/>
      <point x="663" y="559"/>
      <point x="527" y="698"/>
      <point x="331" y="679" type="curve" smooth="yes"/>
      <point x="145" y="661"/>
      <point x="29" y="497"/>
    </contour>
  </outline>
</glyph>
<glyph name="Q.001" format="1">
  <advance width="731"/>
  <outline>
    <contour>
      <point x="284" y="-14" type="line"/>
      <point x="317" y="-24" type="line"/>
      <point x="372" y="-30"/>
      <point x="426" y="-52"/>
      <point x="512" y="-112" type="curve" smooth="yes"/>
      <point x="605" y="-177"/>
      <point x="667" y="-230"/>
      <point x="675" y="-241" type="curve"/>
      <point x="719" y="-202"/>
      <point x="775" y="-152"/>
      <point x="820" y="-116" type="curve"/>
      <point x="815" y="-104" type="line"/>
      <point x="760" y="-151"/>
      <point x="732" y="-157"/>
      <point x="596" y="-92" type="curve" smooth="yes"/>
      <point x="575" y="-82"/>
      <point x="496" y="-33"/>
      <point x="419" y="15" type="curve"/>
      <point x="346" y="3" type="line"/>
    </contour>
    <component base="O"/>
  </outline>
</glyph>
